# xmcd CD database file
#
# Track frame offsets:
#	150
#	8661
#	23692
#	29843
#	43263
#	53551
#	61105
#	70352
#	78611
#	97746
#
# Disc length: 1635 seconds
#
# Revision: 0
# Processed by: cddbd v1.5.1PL0 Copyright (c) Steve Scherf et al.
# Submitted via: CDex 1.60beta1
#
DISCID=7806610a
DTITLE=Muse Lab - flowing
DYEAR=1900
DGENRE=未分類 (日本)
TTITLE0=αPULSE
TTITLE1=DEEPEST LAYER
TTITLE2=δENDOLFIN
TTITLE3=INTERSEPTION
TTITLE4=SPIRAL IMAGE
TTITLE5=Repetitious
TTITLE6=Ripple on the Blue
TTITLE7=Wounds〜キズアト〜
TTITLE8=SPIRAL IMAGE(EXTENDED MIX)
TTITLE9=flowing
EXTD=
EXTT0=
EXTT1=
EXTT2=
EXTT3=
EXTT4=
EXTT5=
EXTT6=
EXTT7=
EXTT8=
EXTT9=
PLAYORDER=
